# xmcd
#
# Track frame offsets:
#	150
#	15977
#	30477
#	47962
#	60090
#	72322
#	85717
#	103707
#	118222
#	131305
#	142240
#	159075
#	174247
#	193527
#	204157
#	216345
#	230245
#	240940
#	255672
#	272425
#	285685
#
# Disc length: 4010 seconds
#
# Revision: 0
# Processed by: cddbd v1.4PL0 Copyright (c) Steve Scherf et al.
# Submitted via: EasyCDDAExtractor 5.0.0.0
#
DISCID=1c0fa815
DTITLE=Various Artist - Country Duets Two
DYEAR=2001
DGENRE=Country
TTITLE0=Tanya tucker and Willie Nelson - fire to fire
TTITLE1=Glen Campbell and Bobbie Gentry - my elusive dreams
TTITLE2=Ray Benson and susie Boggus - old fashioned love
TTITLE3=George Jones and Melba Montgomery - we must have been out of our minds
TTITLE4=Wonda Jackson and Mike Post - Jackson (live)
TTITLE5=Dan Seals and Emmylou Harris - lullaby
TTITLE6=Eddie Rabbit and Crystal Gayle - you and I
TTITLE7=Billie Jo Spears and Dell Reeves - suspicious minds
TTITLE8=Glen Campbell and Bobbie Gentry - heart to heart talk
TTITLE9=Willie Nelson and shirley Collie - together
TTITLE10=Tanya Tucker and Delbert McClinton - tell me about it
TTITLE11=Barbara Mandrell and Ray Price - crazy arms
TTITLE12=Lee Greenwood and Lacy J Dalton - from now on
TTITLE13=George Jones and Melba Montgomery - once more
TTITLE14=Willie Nelson and Shirley Collie - our chain of love
TTITLE15=Glen Campbell and Tanya tucker - why don't we just sleep on it tonight
TTITLE16=Charlie Louvin and Melba Montgomery - something to brag about
TTITLE17=Dean Miller and Trisha Yearwood - dreams
TTITLE18=Johnny Darrell and Anita Carter - the coming of the roads
TTITLE19=Del Reeves and Billie Jo Spears - on the rebound
TTITLE20=Glen Campbell and Lacy J Dalton - wood carver
EXTD=
EXTT0=
EXTT1=
EXTT2=
EXTT3=
EXTT4=
EXTT5=
EXTT6=
EXTT7=
EXTT8=
EXTT9=
EXTT10=
EXTT11=
EXTT12=
EXTT13=
EXTT14=
EXTT15=
EXTT16=
EXTT17=
EXTT18=
EXTT19=
EXTT20=
PLAYORDER=
